<svg id="visual" viewBox="0 0 1650 540" width="1650" height="540" xmlns="http://www.w3.org/2000/svg" xmlns:xlink="http://www.w3.org/1999/xlink" version="1.1">
<g>
    <g transform="translate(1500 250)">
        <path d="M127 -76.7C148.8 -35.5 139.8 20 113.5 62.2C87.2 104.3 43.6 133.2 -5.3 136.2C-54.2 139.3 -108.5 116.6 -131.3 76.4C-154.2 36.2 -145.7 -21.5 -118.6 -65.7C-91.4 -109.9 -45.7 -140.6 3.4 -142.6C52.6 -144.6 105.2 -117.8 127 -76.7Z" fill="none" stroke="#9F89AB" stroke-width="20"></path>
    </g>
    <g transform="translate(708 158)">
        <path d="M87 -46.3C105.7 -17.9 108.8 23.4 91.7 51.1C74.7 78.7 37.3 92.8 4.2 90.4C-28.9 88 -57.8 69 -74.1 41.9C-90.3 14.7 -93.7 -20.7 -79.3 -46.7C-64.8 -72.7 -32.4 -89.2 0.9 -89.8C34.2 -90.3 68.3 -74.7 87 -46.3Z" fill="none" stroke="#9F89AB" stroke-width="20"></path>
    </g>
</g>
</svg>