<svg height='300px' width='300px'  fill="#000000" xmlns="http://www.w3.org/2000/svg" xmlns:xlink="http://www.w3.org/1999/xlink" version="1.1" x="0px" y="0px" viewBox="0 0 100 100" style="enable-background:new 0 0 100 100;" xml:space="preserve"><symbol viewBox="-11.445 -11.32 22.418 22.418"><g><line style="" x1="-0.236" y1="8.098" x2="-0.236" y2="-8.32" fill="#000000" stroke="#000000" stroke-width="6" stroke-linecap="round" stroke-miterlimit="10"></line><line style="" x1="7.973" y1="-0.111" x2="-8.445" y2="-0.111" fill="#000000" stroke="#000000" stroke-width="6" stroke-linecap="round" stroke-miterlimit="10"></line></g><g><path style="" d="M-5.185,7.249c0-1.362-1.104-2.466-2.466-2.466s-2.466,1.104-2.466,2.466    s1.104,2.466,2.466,2.466S-5.185,8.611-5.185,7.249z" stroke="#000000" stroke-miterlimit="10"></path><path style="" d="M9.646,7.249c0-1.362-1.104-2.466-2.466-2.466S4.713,5.887,4.713,7.249    S5.817,9.716,7.18,9.716S9.646,8.611,9.646,7.249z" stroke="#000000" stroke-miterlimit="10"></path></g><g><path style="" d="M-5.185-7.471c0-1.362-1.104-2.466-2.466-2.466s-2.466,1.104-2.466,2.466    s1.104,2.466,2.466,2.466S-5.185-6.109-5.185-7.471z" stroke="#000000" stroke-miterlimit="10"></path><path style="" d="M9.646-7.471c0-1.362-1.104-2.466-2.466-2.466S4.713-8.833,4.713-7.471    S5.817-5.005,7.18-5.005S9.646-6.109,9.646-7.471z" stroke="#000000" stroke-miterlimit="10"></path></g></symbol><symbol viewBox="-5.892 -5.892 11.784 11.784"><path style="" d="M3.892,0C3.892-2.15,2.15-3.892,0-3.892   S-3.892-2.15-3.892,0S-2.149,3.892,0,3.892S3.892,2.149,3.892,0z" fill="#000000" stroke="#000000" stroke-width="4" stroke-miterlimit="10"></path></symbol><g style="" display="none"><rect x="-46.245" y="-920.532" style="" width="1320.132" height="1347.811" display="inline" fill="#000000"></rect></g><g><path d="M50,5C25.147,5,5,25.147,5,50c0,24.853,20.147,45,45,45c24.853,0,45-20.147,45-45C95,25.147,74.853,5,50,5z M80.76,66.367   c0,0.172-0.018,0.339-0.052,0.5c0.034,0.161,0.052,0.328,0.052,0.5c0,1.348-1.092,2.439-2.44,2.439h-8.939   c-8.86,0-16.067,6.813-16.067,15.187c0,1.348-1.092,2.439-2.44,2.439c-0.309,0-0.602-0.063-0.874-0.168   c-0.272,0.105-0.565,0.168-0.874,0.168c-1.348,0-2.44-1.092-2.44-2.439c0-8.374-7.208-15.187-16.067-15.187H21.68   c-1.348,0-2.44-1.092-2.44-2.439c0-0.037,0.009-0.071,0.011-0.107c-0.002-0.036-0.011-0.07-0.011-0.107V25.705   c0-1.348,1.092-2.439,2.44-2.439c0.277,0,0.538,0.056,0.786,0.141l0.003-0.01c0.05,0.017,0.097,0.039,0.147,0.056   c0.007,0.003,0.014,0.005,0.021,0.008c7.415,2.604,12.624,8.982,13.593,16.352h27.442c0.681-7.708,6.005-14.454,13.694-17.155   c0.006-0.003,0.012-0.004,0.018-0.007c0.05-0.018,0.098-0.04,0.148-0.057l0.003,0.01c0.248-0.085,0.509-0.141,0.786-0.141   c1.348,0,2.44,1.092,2.44,2.439V66.367z"></path><path d="M69.101,37.349c-0.33,1.087-0.533,2.215-0.596,3.37c0.293-0.012,0.58-0.042,0.876-0.042h6.499v-11.95   c-0.262,0.159-0.514,0.33-0.764,0.502C72.212,31.228,70.09,34.094,69.101,37.349z"></path><path d="M50,53.154c1.45-3.386,3.845-6.297,6.862-8.462H43.138C46.155,46.856,48.55,49.768,50,53.154z"></path><path d="M24.884,30.03c-0.25-0.172-0.502-0.343-0.764-0.502v11.147h6.499c0.274,0,0.539,0.029,0.81,0.039   c-0.098-0.874-0.277-1.73-0.53-2.562C29.911,34.898,27.788,32.031,24.884,30.03z"></path><path d="M39.435,56.237h-3.686v3.326c0,1.611,1.311,2.922,2.921,2.922h3.686v-3.326C42.356,57.548,41.045,56.237,39.435,56.237z"></path><path d="M57.644,59.693v3.326h3.686c1.61,0,2.921-1.311,2.921-2.921v-3.326h-3.686C58.954,56.772,57.644,58.083,57.644,59.693z"></path></g></svg>